<svg width="91" height="34" viewBox="0 0 91 34" fill="none" xmlns="http://www.w3.org/2000/svg">
<path d="M10.948 13V3.952H13.3L17.644 9.484V3.952H19.984V13H17.644L13.3 7.468V13H10.948ZM26.3182 9.028C26.2462 8.724 26.0982 8.48 25.8742 8.296C25.6502 8.112 25.3782 8.02 25.0582 8.02C24.7222 8.02 24.4462 8.108 24.2302 8.284C24.0222 8.46 23.8902 8.708 23.8342 9.028H26.3182ZM23.7742 10.288C23.7742 11.224 24.2142 11.692 25.0942 11.692C25.5662 11.692 25.9222 11.5 26.1622 11.116H28.2622C27.8382 12.524 26.7782 13.228 25.0822 13.228C24.5622 13.228 24.0862 13.152 23.6542 13C23.2222 12.84 22.8502 12.616 22.5382 12.328C22.2342 12.04 21.9982 11.696 21.8302 11.296C21.6622 10.896 21.5782 10.448 21.5782 9.952C21.5782 9.44 21.6582 8.98 21.8182 8.572C21.9782 8.156 22.2062 7.804 22.5022 7.516C22.7982 7.228 23.1542 7.008 23.5702 6.856C23.9942 6.696 24.4702 6.616 24.9982 6.616C25.5182 6.616 25.9862 6.696 26.4022 6.856C26.8182 7.008 27.1702 7.232 27.4582 7.528C27.7462 7.824 27.9662 8.188 28.1182 8.62C28.2702 9.044 28.3462 9.524 28.3462 10.06V10.288H23.7742ZM31.5876 9.664L29.0916 6.844H31.9236L32.9796 8.116L34.0596 6.844H36.8916L34.3356 9.664L37.4196 13H34.5396L32.9676 11.176L31.3836 13H28.5156L31.5876 9.664ZM40.5899 8.656V13H38.4179V8.656H37.6979V6.844H38.4179V4.996H40.5899V6.844H41.8259V8.656H40.5899ZM49.2766 11.176H49.7926C50.3846 11.176 50.8086 11.1 51.0646 10.948C51.3206 10.796 51.4486 10.552 51.4486 10.216C51.4486 9.88 51.3206 9.636 51.0646 9.484C50.8086 9.332 50.3846 9.256 49.7926 9.256H49.2766V11.176ZM49.2766 7.504H49.7086C50.4446 7.504 50.8126 7.212 50.8126 6.628C50.8126 6.044 50.4446 5.752 49.7086 5.752H49.2766V7.504ZM46.9246 3.952H50.4286C51.2606 3.952 51.8926 4.152 52.3246 4.552C52.7566 4.952 52.9726 5.528 52.9726 6.28C52.9726 6.736 52.8886 7.116 52.7206 7.42C52.5606 7.716 52.3126 7.968 51.9766 8.176C52.3126 8.24 52.5966 8.34 52.8286 8.476C53.0686 8.604 53.2606 8.764 53.4046 8.956C53.5566 9.148 53.6646 9.364 53.7286 9.604C53.7926 9.844 53.8246 10.1 53.8246 10.372C53.8246 10.796 53.7486 11.172 53.5966 11.5C53.4526 11.828 53.2446 12.104 52.9726 12.328C52.7086 12.552 52.3846 12.72 52.0006 12.832C51.6166 12.944 51.1846 13 50.7046 13H46.9246V3.952ZM57.2012 3.04V13H55.0292V3.04H57.2012ZM60.7374 9.892C60.7374 10.1 60.7734 10.292 60.8454 10.468C60.9254 10.636 61.0254 10.784 61.1454 10.912C61.2734 11.04 61.4214 11.14 61.5894 11.212C61.7654 11.284 61.9494 11.32 62.1414 11.32C62.3334 11.32 62.5134 11.284 62.6814 11.212C62.8574 11.14 63.0054 11.04 63.1254 10.912C63.2534 10.784 63.3534 10.636 63.4254 10.468C63.5054 10.292 63.5454 10.104 63.5454 9.904C63.5454 9.712 63.5054 9.532 63.4254 9.364C63.3534 9.188 63.2534 9.036 63.1254 8.908C63.0054 8.78 62.8574 8.68 62.6814 8.608C62.5134 8.536 62.3334 8.5 62.1414 8.5C61.9494 8.5 61.7654 8.536 61.5894 8.608C61.4214 8.68 61.2734 8.78 61.1454 8.908C61.0254 9.036 60.9254 9.184 60.8454 9.352C60.7734 9.52 60.7374 9.7 60.7374 9.892ZM58.4454 9.868C58.4454 9.412 58.5374 8.988 58.7214 8.596C58.9054 8.196 59.1614 7.852 59.4894 7.564C59.8174 7.268 60.2054 7.036 60.6534 6.868C61.1094 6.7 61.6054 6.616 62.1414 6.616C62.6694 6.616 63.1574 6.7 63.6054 6.868C64.0614 7.028 64.4534 7.256 64.7814 7.552C65.1174 7.84 65.3774 8.188 65.5614 8.596C65.7454 8.996 65.8374 9.44 65.8374 9.928C65.8374 10.416 65.7414 10.864 65.5494 11.272C65.3654 11.672 65.1094 12.02 64.7814 12.316C64.4534 12.604 64.0574 12.828 63.5934 12.988C63.1374 13.148 62.6414 13.228 62.1054 13.228C61.5774 13.228 61.0894 13.148 60.6414 12.988C60.1934 12.828 59.8054 12.6 59.4774 12.304C59.1574 12.008 58.9054 11.656 58.7214 11.248C58.5374 10.832 58.4454 10.372 58.4454 9.868ZM69.1038 9.892C69.1038 10.092 69.1398 10.28 69.2118 10.456C69.2838 10.624 69.3798 10.772 69.4998 10.9C69.6278 11.028 69.7758 11.128 69.9438 11.2C70.1198 11.272 70.3078 11.308 70.5078 11.308C70.6998 11.308 70.8798 11.272 71.0478 11.2C71.2238 11.128 71.3718 11.028 71.4918 10.9C71.6198 10.772 71.7198 10.624 71.7918 10.456C71.8718 10.28 71.9118 10.096 71.9118 9.904C71.9118 9.704 71.8718 9.52 71.7918 9.352C71.7198 9.184 71.6198 9.036 71.4918 8.908C71.3638 8.78 71.2118 8.68 71.0358 8.608C70.8678 8.536 70.6918 8.5 70.5078 8.5C70.3158 8.5 70.1358 8.54 69.9678 8.62C69.7998 8.692 69.6518 8.792 69.5238 8.92C69.3958 9.04 69.2918 9.184 69.2118 9.352C69.1398 9.52 69.1038 9.7 69.1038 9.892ZM73.9758 6.844V12.58C73.9758 12.924 73.9558 13.232 73.9158 13.504C73.8758 13.776 73.8198 14.016 73.7478 14.224C73.6518 14.488 73.4998 14.732 73.2918 14.956C73.0918 15.188 72.8478 15.388 72.5598 15.556C72.2718 15.724 71.9438 15.856 71.5758 15.952C71.2158 16.048 70.8238 16.096 70.3998 16.096C69.9198 16.096 69.4798 16.036 69.0798 15.916C68.6798 15.796 68.3278 15.628 68.0238 15.412C67.7278 15.204 67.4838 14.956 67.2918 14.668C67.0998 14.388 66.9718 14.08 66.9078 13.744H69.3558C69.5078 14.152 69.8518 14.356 70.3878 14.356C70.8438 14.356 71.1918 14.228 71.4318 13.972C71.6798 13.716 71.8038 13.36 71.8038 12.904V12.316C71.6438 12.468 71.4878 12.596 71.3358 12.7C71.1918 12.796 71.0438 12.876 70.8918 12.94C70.7398 13.004 70.5798 13.048 70.4118 13.072C70.2438 13.104 70.0598 13.12 69.8598 13.12C69.4198 13.12 69.0158 13.044 68.6478 12.892C68.2798 12.74 67.9598 12.528 67.6878 12.256C67.4238 11.984 67.2158 11.66 67.0638 11.284C66.9198 10.9 66.8478 10.476 66.8478 10.012C66.8478 9.54 66.9278 9.104 67.0878 8.704C67.2478 8.296 67.4638 7.944 67.7358 7.648C68.0158 7.344 68.3438 7.108 68.7198 6.94C69.1038 6.764 69.5198 6.676 69.9678 6.676C70.6958 6.676 71.3078 6.948 71.8038 7.492V6.844H73.9758ZM13.3 27.176H13.816C14.408 27.176 14.832 27.1 15.088 26.948C15.344 26.796 15.472 26.552 15.472 26.216C15.472 25.88 15.344 25.636 15.088 25.484C14.832 25.332 14.408 25.256 13.816 25.256H13.3V27.176ZM13.3 23.504H13.732C14.468 23.504 14.836 23.212 14.836 22.628C14.836 22.044 14.468 21.752 13.732 21.752H13.3V23.504ZM10.948 19.952H14.452C15.284 19.952 15.916 20.152 16.348 20.552C16.78 20.952 16.996 21.528 16.996 22.28C16.996 22.736 16.912 23.116 16.744 23.42C16.584 23.716 16.336 23.968 16 24.176C16.336 24.24 16.62 24.34 16.852 24.476C17.092 24.604 17.284 24.764 17.428 24.956C17.58 25.148 17.688 25.364 17.752 25.604C17.816 25.844 17.848 26.1 17.848 26.372C17.848 26.796 17.772 27.172 17.62 27.5C17.476 27.828 17.268 28.104 16.996 28.328C16.732 28.552 16.408 28.72 16.024 28.832C15.64 28.944 15.208 29 14.728 29H10.948V19.952ZM21.1046 25.892C21.1046 26.1 21.1406 26.292 21.2126 26.468C21.2926 26.636 21.3926 26.784 21.5126 26.912C21.6406 27.04 21.7886 27.14 21.9566 27.212C22.1326 27.284 22.3166 27.32 22.5086 27.32C22.7006 27.32 22.8806 27.284 23.0486 27.212C23.2246 27.14 23.3726 27.04 23.4926 26.912C23.6206 26.784 23.7206 26.636 23.7926 26.468C23.8726 26.292 23.9126 26.104 23.9126 25.904C23.9126 25.712 23.8726 25.532 23.7926 25.364C23.7206 25.188 23.6206 25.036 23.4926 24.908C23.3726 24.78 23.2246 24.68 23.0486 24.608C22.8806 24.536 22.7006 24.5 22.5086 24.5C22.3166 24.5 22.1326 24.536 21.9566 24.608C21.7886 24.68 21.6406 24.78 21.5126 24.908C21.3926 25.036 21.2926 25.184 21.2126 25.352C21.1406 25.52 21.1046 25.7 21.1046 25.892ZM18.8126 25.868C18.8126 25.412 18.9046 24.988 19.0886 24.596C19.2726 24.196 19.5286 23.852 19.8566 23.564C20.1846 23.268 20.5726 23.036 21.0206 22.868C21.4766 22.7 21.9726 22.616 22.5086 22.616C23.0366 22.616 23.5246 22.7 23.9726 22.868C24.4286 23.028 24.8206 23.256 25.1486 23.552C25.4846 23.84 25.7446 24.188 25.9286 24.596C26.1126 24.996 26.2046 25.44 26.2046 25.928C26.2046 26.416 26.1086 26.864 25.9166 27.272C25.7326 27.672 25.4766 28.02 25.1486 28.316C24.8206 28.604 24.4246 28.828 23.9606 28.988C23.5046 29.148 23.0086 29.228 22.4726 29.228C21.9446 29.228 21.4566 29.148 21.0086 28.988C20.5606 28.828 20.1726 28.6 19.8446 28.304C19.5246 28.008 19.2726 27.656 19.0886 27.248C18.9046 26.832 18.8126 26.372 18.8126 25.868ZM29.6269 22.844V29H27.4549V22.844H29.6269ZM27.3109 20.48C27.3109 20.312 27.3429 20.156 27.4069 20.012C27.4709 19.86 27.5589 19.728 27.6709 19.616C27.7829 19.504 27.9109 19.416 28.0549 19.352C28.2069 19.288 28.3669 19.256 28.5349 19.256C28.7029 19.256 28.8589 19.288 29.0029 19.352C29.1549 19.416 29.2869 19.504 29.3989 19.616C29.5109 19.728 29.5989 19.86 29.6629 20.012C29.7269 20.156 29.7589 20.312 29.7589 20.48C29.7589 20.648 29.7269 20.808 29.6629 20.96C29.5989 21.104 29.5109 21.232 29.3989 21.344C29.2869 21.456 29.1549 21.544 29.0029 21.608C28.8589 21.672 28.7029 21.704 28.5349 21.704C28.3669 21.704 28.2069 21.672 28.0549 21.608C27.9109 21.544 27.7829 21.456 27.6709 21.344C27.5589 21.232 27.4709 21.104 27.4069 20.96C27.3429 20.808 27.3109 20.648 27.3109 20.48ZM33.2832 19.04V29H31.1112V19.04H33.2832ZM39.2674 25.028C39.1954 24.724 39.0474 24.48 38.8234 24.296C38.5994 24.112 38.3274 24.02 38.0074 24.02C37.6714 24.02 37.3954 24.108 37.1794 24.284C36.9714 24.46 36.8394 24.708 36.7834 25.028H39.2674ZM36.7234 26.288C36.7234 27.224 37.1634 27.692 38.0434 27.692C38.5154 27.692 38.8714 27.5 39.1114 27.116H41.2114C40.7874 28.524 39.7274 29.228 38.0314 29.228C37.5114 29.228 37.0354 29.152 36.6034 29C36.1714 28.84 35.7994 28.616 35.4874 28.328C35.1834 28.04 34.9474 27.696 34.7794 27.296C34.6114 26.896 34.5274 26.448 34.5274 25.952C34.5274 25.44 34.6074 24.98 34.7674 24.572C34.9274 24.156 35.1554 23.804 35.4514 23.516C35.7474 23.228 36.1034 23.008 36.5194 22.856C36.9434 22.696 37.4194 22.616 37.9474 22.616C38.4674 22.616 38.9354 22.696 39.3514 22.856C39.7674 23.008 40.1194 23.232 40.4074 23.528C40.6954 23.824 40.9154 24.188 41.0674 24.62C41.2194 25.044 41.2954 25.524 41.2954 26.06V26.288H36.7234ZM42.537 22.844H44.709V23.852C44.941 23.484 45.225 23.204 45.561 23.012C45.897 22.812 46.289 22.712 46.737 22.712C46.793 22.712 46.853 22.712 46.917 22.712C46.989 22.712 47.069 22.72 47.157 22.736V24.812C46.869 24.668 46.557 24.596 46.221 24.596C45.717 24.596 45.337 24.748 45.081 25.052C44.833 25.348 44.709 25.784 44.709 26.36V29H42.537V22.844ZM53.0348 25.94C53.0348 25.748 52.9988 25.568 52.9268 25.4C52.8628 25.224 52.7668 25.072 52.6388 24.944C52.5108 24.816 52.3588 24.716 52.1828 24.644C52.0148 24.564 51.8308 24.524 51.6308 24.524C51.4388 24.524 51.2588 24.56 51.0908 24.632C50.9228 24.704 50.7748 24.804 50.6468 24.932C50.5268 25.06 50.4268 25.212 50.3468 25.388C50.2748 25.556 50.2388 25.736 50.2388 25.928C50.2388 26.12 50.2748 26.3 50.3468 26.468C50.4188 26.636 50.5188 26.784 50.6468 26.912C50.7748 27.032 50.9228 27.132 51.0908 27.212C51.2668 27.284 51.4508 27.32 51.6428 27.32C51.8348 27.32 52.0148 27.284 52.1828 27.212C52.3508 27.14 52.4948 27.04 52.6148 26.912C52.7428 26.784 52.8428 26.636 52.9148 26.468C52.9948 26.3 53.0348 26.124 53.0348 25.94ZM50.2988 32.072H48.1268V22.844H50.2988V23.528C50.7628 22.944 51.3948 22.652 52.1948 22.652C52.6348 22.652 53.0428 22.74 53.4188 22.916C53.8028 23.084 54.1348 23.316 54.4148 23.612C54.6948 23.908 54.9108 24.256 55.0628 24.656C55.2228 25.056 55.3028 25.484 55.3028 25.94C55.3028 26.396 55.2228 26.82 55.0628 27.212C54.9108 27.604 54.6948 27.948 54.4148 28.244C54.1428 28.54 53.8188 28.772 53.4428 28.94C53.0668 29.108 52.6588 29.192 52.2188 29.192C51.4508 29.192 50.8108 28.928 50.2988 28.4V32.072ZM58.7129 19.04V29H56.5409V19.04H58.7129ZM62.2131 25.904C62.2131 26.104 62.2491 26.292 62.3211 26.468C62.3931 26.636 62.4891 26.784 62.6091 26.912C62.7371 27.04 62.8851 27.14 63.0531 27.212C63.2291 27.284 63.4171 27.32 63.6171 27.32C63.8091 27.32 63.9891 27.284 64.1571 27.212C64.3331 27.14 64.4811 27.04 64.6011 26.912C64.7291 26.784 64.8291 26.636 64.9011 26.468C64.9811 26.3 65.0211 26.12 65.0211 25.928C65.0211 25.736 64.9811 25.556 64.9011 25.388C64.8291 25.212 64.7291 25.06 64.6011 24.932C64.4811 24.804 64.3331 24.704 64.1571 24.632C63.9891 24.56 63.8091 24.524 63.6171 24.524C63.4171 24.524 63.2291 24.56 63.0531 24.632C62.8851 24.704 62.7371 24.804 62.6091 24.932C62.4891 25.06 62.3931 25.208 62.3211 25.376C62.2491 25.536 62.2131 25.712 62.2131 25.904ZM64.9491 22.844H67.1331V29H64.9491V28.316C64.4851 28.9 63.8571 29.192 63.0651 29.192C62.6171 29.192 62.2051 29.112 61.8291 28.952C61.4531 28.784 61.1251 28.552 60.8451 28.256C60.5651 27.96 60.3451 27.612 60.1851 27.212C60.0331 26.812 59.9571 26.376 59.9571 25.904C59.9571 25.464 60.0331 25.048 60.1851 24.656C60.3371 24.256 60.5491 23.908 60.8211 23.612C61.0931 23.316 61.4171 23.084 61.7931 22.916C62.1691 22.74 62.5851 22.652 63.0411 22.652C63.8091 22.652 64.4451 22.92 64.9491 23.456V22.844ZM71.0352 24.656V29H68.8632V24.656H68.1432V22.844H68.8632V20.996H71.0352V22.844H72.2712V24.656H71.0352ZM77.7049 25.028C77.6329 24.724 77.4849 24.48 77.2609 24.296C77.0369 24.112 76.7649 24.02 76.4449 24.02C76.1089 24.02 75.8329 24.108 75.6169 24.284C75.4089 24.46 75.2769 24.708 75.2209 25.028H77.7049ZM75.1609 26.288C75.1609 27.224 75.6009 27.692 76.4809 27.692C76.9529 27.692 77.3089 27.5 77.5489 27.116H79.6489C79.2249 28.524 78.1649 29.228 76.4689 29.228C75.9489 29.228 75.4729 29.152 75.0409 29C74.6089 28.84 74.2369 28.616 73.9249 28.328C73.6209 28.04 73.3849 27.696 73.2169 27.296C73.0489 26.896 72.9649 26.448 72.9649 25.952C72.9649 25.44 73.0449 24.98 73.2049 24.572C73.3649 24.156 73.5929 23.804 73.8889 23.516C74.1849 23.228 74.5409 23.008 74.9569 22.856C75.3809 22.696 75.8569 22.616 76.3849 22.616C76.9049 22.616 77.3729 22.696 77.7889 22.856C78.2049 23.008 78.5569 23.232 78.8449 23.528C79.1329 23.824 79.3529 24.188 79.5049 24.62C79.6569 25.044 79.7329 25.524 79.7329 26.06V26.288H75.1609Z" fill="black"/>
</svg>
